Coordinates
version=1
nRows=17
nColumns=36
inDegrees=yes

Units are S.I. units (second, meters, Newtons, ...)
If the header above contains a line with 'inDegrees', this indicates whether rotational values are in degrees (yes) or radians (no).

endheader
time	pelvis_tilt	pelvis_list	pelvis_rotation	pelvis_tx	pelvis_ty	pelvis_tz	hip_flexion_r	hip_adduction_r	hip_rotation_r	knee_angle_r	knee_angle_r_beta	ankle_angle_r	subtalar_angle_r	mtp_angle_r	hip_flexion_l	hip_adduction_l	hip_rotation_l	knee_angle_l	knee_angle_l_beta	ankle_angle_l	subtalar_angle_l	mtp_angle_l	lumbar_extension	lumbar_bending	lumbar_rotation	arm_flex_r	arm_add_r	arm_rot_r	elbow_flex_r	pro_sup_r	arm_flex_l	arm_add_l	arm_rot_l	elbow_flex_l	pro_sup_l
      1.46500000	    -11.47969624	     -2.01455244	      0.30944010	      0.37682298	      0.93080649	     -0.15822458	     11.35786538	     -4.70466217	     -0.13588875	      4.46832167	      0.07798693	     -1.55656776	     -6.82068827	     -7.49999987	      6.17264965	     -7.02072321	     -1.49266560	      2.96757590	      0.05179397	      2.53383664	     -8.60738550	     -7.49999987	     -6.25219272	     -0.77801223	      2.60817377	      9.67848483	    -21.64136008	   -413.09478075	     63.18860371	     45.60484927	    171.21380131	    191.71962960	    518.81425369	     13.31377424	     72.93407216
      1.46666670	    -11.26723317	     -2.01856545	      0.23193560	      0.37677518	      0.93015746	     -0.15556437	     10.87522389	     -4.70601011	     -0.27290841	      4.04642111	      0.07062337	     -1.48940501	     -6.37350147	     -7.49999987	      5.63018594	     -7.04348554	     -1.80850745	      2.52882419	      0.04413631	      2.64192278	     -8.28277164	     -7.49999987	     -6.00637943	     -0.80116553	      2.84014481	      8.86357751	    -21.11042141	   -413.87686364	     63.47137347	     43.97985720	    170.39390962	    191.88159734	    521.74818947	     13.68643968	     74.53230388
      1.46833330	    -11.09354611	     -2.01734276	      0.22166367	      0.37934826	      0.93209640	     -0.15569774	     10.37203209	     -4.70345878	     -0.27054004	      3.58363386	      0.06254621	     -1.59570924	     -6.02750598	     -7.49999987	      5.12117533	     -7.06049322	     -1.93911598	      2.10988998	      0.03682453	      2.61772903	     -7.99294227	     -7.49999987	     -5.73768534	     -0.78740773	      2.95978328	      7.86730035	    -20.41643977	   -414.70607580	     64.35353549	     42.03653204	    169.44199126	    191.74626219	    521.88146392	     14.73367678	     73.32412511
      1.47000000	    -10.91449303	     -2.03757583	      0.16434793	      0.37983919	      0.93335929	     -0.15485722	      9.88163780	     -4.68445625	     -0.25561724	      3.16018407	      0.05515562	     -1.43723748	     -5.38170736	     -7.49999987	      4.61582161	     -7.09875468	     -2.12771108	      1.71649056	      0.02995841	      2.73579168	     -7.68170296	     -7.49999987	     -5.54638728	     -0.78668864	      3.14594771	      7.20986372	    -20.03115699	   -415.34294689	     65.04289597	     41.30105444	    168.84465341	    191.82955602	    521.69234399	     15.66007267	     73.39999600
      1.47166670	    -10.73011790	     -2.06372774	      0.12288997	      0.38062974	      0.93382286	     -0.15341251	      9.41797590	     -4.60565755	     -0.18021984	      2.77645584	      0.04845830	     -1.35725338	     -5.02595656	     -7.49999987	      4.14554171	     -7.17201045	     -2.28587124	      1.38575244	      0.02418594	      2.82483867	     -7.40213705	     -7.49999987	     -5.37002755	     -0.83970471	      3.32207292	      6.52825717	    -19.47830528	   -415.91212860	     65.75229460	     41.01836606	    168.34567645	    192.05316770	    521.78140350	     16.39595820	     73.52218246
      1.47333330	    -10.50252105	     -2.09864329	      0.12333571	      0.38050927	      0.93068595	     -0.15335652	      8.93188915	     -4.52676753	     -0.10822063	      2.45930731	      0.04292301	     -1.26651101	     -4.84221402	     -7.49999987	      3.69871782	     -7.23367131	     -2.50518572	      1.16343828	      0.02030583	      3.10372519	     -7.01341733	     -7.49999987	     -5.33678516	     -0.87731230	      3.30303449	      6.37876718	    -19.27669057	   -416.06995781	     66.23685633	     40.43719814	    167.96034216	    192.41838830	    522.31922697	     16.91100835	     73.70112589
      1.47500000	    -10.38636388	     -2.16246722	      0.14709524	      0.38092256	      0.92703746	     -0.15356269	      8.62234059	     -4.43258829	     -0.12688762	      2.24956096	      0.03926225	     -0.97367373	     -4.59740838	     -7.49999987	      3.40890192	     -7.33582680	     -2.53115972	      1.00315275	      0.01750832	      3.40105137	     -6.87195718	     -7.49999987	     -5.14782794	     -0.81835015	      3.33665213	      5.94700379	    -19.02432206	   -416.49884663	     67.00383900	     42.40903259	    167.63473891	    192.80077285	    523.34811028	     17.12262143	     72.59631502
      1.47666670	    -10.26001740	     -2.19504310	      0.13383648	      0.38053256	      0.92430278	     -0.15356413	      8.37201924	     -4.38036872	      0.04452552	      2.12168651	      0.03703042	     -0.69703502	     -4.66965255	     -7.49999987	      3.14950153	     -7.39429184	     -2.67495568	      0.88684302	      0.01547833	      3.84692884	     -6.50563296	     -7.49999987	     -5.04114396	     -0.81599715	      3.47055497	      5.56267144	    -19.12510180	   -416.49018545	     67.89016080	     39.72391848	    167.35019658	    193.23893372	    525.57661248	     17.36287129	     63.68380005
      1.47833330	    -10.31889602	     -2.25432517	      0.14884991	      0.38103514	      0.92170252	     -0.15315398	      8.33473541	     -4.32106470	      0.04594146	      2.03133785	      0.03545353	     -0.27519774	     -4.44473994	     -7.49999987	      3.11101790	     -7.48091390	     -2.48140758	      0.81977323	      0.01430774	      4.08799030	     -6.73546170	     -7.49999987	     -4.69237974	     -0.78897130	      3.75853564	      4.83589485	    -18.84899933	   -417.57831325	     68.93451304	     43.60357039	    167.12403113	    193.32029186	    522.73035203	     17.94869564	     66.96304081
      1.48000000	    -10.17777314	     -2.25360938	      0.16539427	      0.38048745	      0.92384969	     -0.15214356	      8.06900796	     -4.29313196	      0.22862257	      1.90041609	      0.03316852	     -0.09284374	     -4.62397769	     -7.49999987	      2.87193606	     -7.53649129	     -2.61739696	      0.74384222	      0.01298250	      4.53116887	     -6.12546301	     -7.49999987	     -4.62471311	     -0.81480661	      3.27142958	      4.95068117	    -18.99842421	   -416.47905785	     69.06864584	     42.84869818	    166.75662184	    193.94948081	    525.72755483	     17.38929755	     67.60906317
      1.48166670	    -10.23193270	     -2.29736753	      0.14134446	      0.38018405	      0.92123032	     -0.15216258	      8.07960481	     -4.22444991	      0.39582453	      1.83625681	      0.03204873	      0.17553232	     -4.70868967	     -7.49999987	      2.87067281	     -7.61829492	     -2.60543529	      0.70689670	      0.01233767	      4.80579290	     -5.97969998	     -7.49999987	     -4.36524018	     -0.81690184	      3.50660009	      4.18761621	    -18.79014734	   -416.93296983	     69.99707186	     43.89162090	    166.72910364	    194.21538978	    525.65047910	     17.33399788	     68.06628056
      1.48333330	    -10.21876454	     -2.32301030	      0.21032756	      0.38037496	      0.91828760	     -0.15231148	      7.98441510	     -4.18416275	      0.53928995	      1.76259659	      0.03076311	      0.40490320	     -4.82948835	     -7.49999987	      2.83883935	     -7.68511295	     -2.49329166	      0.67833987	      0.01183926	      5.04693436	     -5.86463348	     -7.49999987	     -4.18121218	     -0.81364404	      3.30609090	      3.88181639	    -18.88334018	   -416.60727780	     70.65003035	     41.94493882	    166.42558680	    194.61847337	    528.93856549	     17.30523192	     58.03254290
      1.48500000	    -10.22117619	     -2.36396031	      0.18778067	      0.37994596	      0.91414347	     -0.15107022	      7.97266459	     -4.11362543	      0.66102224	      1.76061679	      0.03072856	      0.73152983	     -4.97738916	     -7.49999987	      2.82814576	     -7.80986234	     -2.39207341	      0.66948802	      0.01168477	      5.38786811	     -5.84631813	     -7.49999987	     -3.95910462	     -0.83357028	      3.24839085	      3.38289224	    -18.73044848	   -416.61689009	     71.49473632	     41.96314779	    166.10304486	    194.89324678	    528.86800571	     17.32405527	     59.04141780
      1.48666670	    -10.22913451	     -2.36313496	      0.14202919	      0.38084732	      0.91586583	     -0.15068283	      7.98217676	     -4.08393772	      0.83937967	      1.79057683	      0.03125146	      0.84695554	     -5.23616788	     -7.49999987	      2.80487012	     -7.89535912	     -2.40805929	      0.64859528	      0.01132012	      5.55317694	     -5.70246076	     -7.49999987	     -3.71202100	     -0.93775557	      3.12838760	      3.19053405	    -18.60016630	   -416.56609550	     71.72704989	     43.73373206	    165.84535392	    195.15373665	    529.62835830	     17.23948789	     55.93804741
      1.48833330	    -10.22560258	     -2.40011805	      0.08350392	      0.38097368	      0.91494165	     -0.15078754	      7.95714501	     -4.01549897	      1.03077266	      1.80709766	      0.03153980	      1.05826050	     -5.35929073	     -7.49999987	      2.75978066	     -7.98926733	     -2.32966259	      0.64122511	      0.01119149	      5.79101553	     -5.56187607	     -7.49999987	     -3.38110481	     -0.98175745	      2.89064873	      2.92764385	    -18.29384891	   -416.46310676	     71.90576291	     48.09363437	    165.43623913	    195.21008136	    527.91298193	     16.99113814	     62.02462313
      1.49000000	    -10.19517404	     -2.39503155	      0.04463588	      0.38134086	      0.91284248	     -0.15129659	      7.93995901	     -4.02652029	      1.13065995	      1.89053338	      0.03299603	      1.12691158	     -5.63448816	     -7.49999987	      2.71132128	     -8.01027540	     -2.34913211	      0.63053637	      0.01100494	      5.89341659	     -5.49437025	     -7.49999987	     -3.14838380	     -1.04690294	      2.95088207	      2.56269306	    -18.13170942	   -416.59834808	     72.18896511	     48.32752189	    165.19989504	    195.26771332	    527.14331221	     17.07636839	     63.22699190
      1.49166670	    -10.21847539	     -2.38756435	      0.01190785	      0.38165942	      0.91628877	     -0.15179065	      7.94102898	     -4.05026442	      1.10811009	      1.92202057	      0.03354559	      1.08216225	     -5.83531711	     -7.49999987	      2.71567509	     -8.00319771	     -2.35102503	      0.61975076	      0.01081669	      5.88353060	     -5.41835771	     -7.49999987	     -2.84962995	     -1.06963849	      2.90641471	      2.12218191	    -17.81119194	   -416.49662897	     72.58691691	     45.62390058	    165.24524366	    195.31985883	    529.04668710	     16.70183067	     53.23963552
